<?xml version="1.0" standalone="no"?>
<!DOCTYPE svg PUBLIC "-//W3C//DTD SVG 1.1//EN" "http://www.w3.org/Graphics/SVG/1.1/DTD/svg11.dtd">
<svg xmlns="http://www.w3.org/2000/svg" xmlns:xlink="http://www.w3.org/1999/xlink" x="0px" y="0px" viewBox="0 0 320 40" style="enable-background:new 0 0 320 40;" xml:space="preserve" width="320" height="40">
<style type="text/css">
	.st0{enable-background:new    ;}
	.st1{fill:#FFFFFF;}
</style>
  <g class="st0">
	<path class="st1" d="M2.5,26.7c0.2,0,0.3,0,0.4-0.1c0.1-0.1,0.2-0.2,0.2-0.4V12.6c0-0.2-0.1-0.3-0.2-0.4c-0.1-0.1-0.2-0.1-0.4-0.1   v-0.5h5.3v0.5c-0.1,0-0.2,0-0.3,0.1c-0.1,0.1-0.2,0.1-0.2,0.3c0,0.1,0,0.2,0.1,0.4c0.1,0.2,0.2,0.3,0.3,0.5l4,7.7l4.1-7.6   c0.1-0.3,0.2-0.5,0.3-0.6c0.1-0.1,0.1-0.3,0.1-0.4c0-0.2-0.1-0.3-0.4-0.3v-0.5h5.2v0.5c-0.2,0-0.3,0-0.4,0.1   c-0.1,0.1-0.2,0.2-0.2,0.4v13.6c0,0.2,0.1,0.3,0.2,0.4c0.1,0.1,0.2,0.1,0.4,0.1v0.5h-4.4v-0.5c0.5,0,0.8-0.2,0.8-0.5v-9.9h-0.1   l-5.7,10.9h-0.1L6,16.3H5.9v9.9c0,0.4,0.3,0.5,0.8,0.5v0.5H2.5V26.7z"/>
    <path class="st1" d="M39.9,14.8c0-0.2-0.1-0.4-0.2-0.5c-0.2-0.1-0.4-0.2-0.8-0.2h-9.2v3.7h5.5c0.4,0,0.7-0.1,0.9-0.2   c0.2-0.1,0.3-0.4,0.3-0.8h0.5v4.6h-0.5c0-0.5-0.1-0.7-0.3-0.9c-0.2-0.1-0.5-0.2-0.9-0.2h-5.5v4.1h9.4c0.3,0,0.5-0.1,0.7-0.2   c0.2-0.1,0.3-0.3,0.3-0.6h0.5v4.1h-0.5c0-0.3-0.1-0.5-0.3-0.5c-0.2,0-0.4-0.1-0.7-0.1H26v-0.5c0.1,0,0.2,0,0.4-0.1   c0.1-0.1,0.2-0.2,0.2-0.4V12.7c0-0.2-0.1-0.3-0.2-0.4s-0.2-0.1-0.4-0.1v-0.5h12.9c0.4,0,0.7-0.1,0.8-0.2s0.2-0.3,0.2-0.5h0.5v3.9   H39.9z"/>
    <path class="st1" d="M54.3,11.6c0.9,0,1.7,0.1,2.5,0.3s1.4,0.4,1.9,0.8c0.5,0.4,0.9,0.8,1.2,1.4c0.3,0.6,0.4,1.3,0.4,2.2   c0,1.3-0.4,2.3-1.1,3c-0.7,0.7-1.7,1.2-3,1.4l3.8,5.7c0.1,0.2,0.3,0.3,0.5,0.4c0.2,0,0.3,0.1,0.5,0.1v0.5h-5.3v-0.5   c0.2,0,0.3,0,0.4-0.1c0.1-0.1,0.2-0.1,0.2-0.2c0-0.1,0-0.2-0.1-0.3s-0.2-0.3-0.3-0.5l-3.1-4.6h-4v5.3c0,0.2,0.1,0.3,0.2,0.4   c0.1,0.1,0.3,0.1,0.7,0.1v0.5h-4.9v-0.5c0.5,0,0.8-0.2,0.8-0.5V12.7c0-0.4-0.3-0.5-0.8-0.5v-0.5H54.3z M53.6,18.6   c0.7,0,1.2-0.1,1.7-0.2c0.5-0.1,0.8-0.3,1.1-0.5c0.3-0.2,0.5-0.4,0.6-0.7c0.1-0.3,0.2-0.6,0.2-0.9c0-0.3-0.1-0.6-0.2-0.9   c-0.1-0.3-0.3-0.5-0.6-0.7c-0.3-0.2-0.6-0.4-1.1-0.5c-0.5-0.1-1-0.2-1.7-0.2h-4.9v4.4H53.6z"/>
    <path class="st1" d="M80.9,25.1c-0.1,0-0.1,0-0.2,0c0,0-0.1,0-0.2,0c-0.1,0-0.4,0.1-0.8,0.4s-1,0.5-1.6,0.8   c-0.7,0.3-1.4,0.6-2.2,0.8c-0.8,0.2-1.7,0.3-2.6,0.3c-1.2,0-2.3-0.2-3.4-0.5c-1.1-0.3-2.1-0.8-2.9-1.5s-1.5-1.5-2-2.5   c-0.5-1-0.7-2.2-0.7-3.5c0-1.3,0.2-2.5,0.7-3.5c0.5-1,1.2-1.8,2-2.5c0.8-0.7,1.8-1.2,2.9-1.5c1.1-0.3,2.2-0.5,3.4-0.5   c1,0,1.8,0.1,2.6,0.2c0.8,0.2,1.5,0.3,2,0.5c0.6,0.2,1,0.3,1.4,0.5c0.3,0.2,0.5,0.2,0.6,0.2c0.1,0,0.2,0,0.2-0.1   c0.1-0.1,0.1-0.2,0.2-0.2l0.4,0.4l-2.2,3.6l-0.3-0.2c0-0.1,0-0.1,0-0.2c0-0.1,0-0.1,0-0.2c0-0.2-0.2-0.4-0.6-0.7   c-0.3-0.2-0.8-0.4-1.3-0.6c-0.5-0.2-1-0.3-1.6-0.4C74.4,14,73.8,14,73.4,14c-0.8,0-1.6,0.1-2.3,0.4c-0.7,0.2-1.4,0.6-1.9,1   c-0.5,0.5-1,1-1.3,1.7c-0.3,0.7-0.5,1.4-0.5,2.3c0,0.9,0.2,1.6,0.5,2.3c0.3,0.7,0.7,1.2,1.3,1.7c0.5,0.5,1.2,0.8,1.9,1   c0.7,0.2,1.5,0.4,2.3,0.4c0.6,0,1.2-0.1,1.9-0.2c0.7-0.1,1.3-0.3,1.8-0.6s1-0.5,1.4-0.8c0.4-0.3,0.6-0.6,0.6-0.8   c0-0.1,0-0.3-0.1-0.4l0.4-0.2l1.9,3.2L80.9,25.1z"/>
    <path class="st1" d="M83.8,26.7c0.2,0,0.4-0.2,0.6-0.4s0.3-0.5,0.4-0.7L90,14c0.1-0.3,0.2-0.5,0.4-0.7c0.1-0.2,0.2-0.4,0.2-0.6   c0-0.2-0.1-0.3-0.2-0.4c-0.1-0.1-0.3-0.1-0.4-0.2v-0.5h4.8v0.5c-0.1,0-0.3,0.1-0.4,0.2c-0.1,0.1-0.2,0.2-0.2,0.4   c0,0.2,0,0.3,0.1,0.5c0.1,0.2,0.2,0.4,0.3,0.6l5.9,12.1c0.1,0.2,0.2,0.4,0.4,0.5c0.2,0.1,0.3,0.2,0.6,0.3v0.5h-5v-0.5   c0.1,0,0.2,0,0.3-0.1c0.1-0.1,0.2-0.1,0.2-0.3c0-0.2-0.1-0.5-0.2-0.8l-1.1-2.2h-6.9l-1,2.1c-0.2,0.4-0.3,0.7-0.3,0.9   c0,0.2,0.2,0.3,0.5,0.3v0.5h-4V26.7z M94.5,21.2l-2.4-5.5l-2.7,5.5H94.5z"/>
    <path class="st1" d="M112.3,26.2c0,0.4,0.2,0.5,0.6,0.5v0.5h-4.4v-0.5c0.1,0,0.2,0,0.4-0.1c0.1-0.1,0.2-0.2,0.2-0.4V14.3h-4.7   c-0.2,0-0.3,0-0.5,0.1c-0.2,0.1-0.2,0.3-0.2,0.6h-0.5v-4.2h0.5c0,0.3,0.1,0.5,0.2,0.6c0.2,0.1,0.3,0.1,0.5,0.1h12.5   c0.2,0,0.3,0,0.5-0.1c0.2-0.1,0.2-0.3,0.2-0.6h0.5v4.2h-0.5c0-0.3-0.1-0.5-0.2-0.6c-0.2-0.1-0.3-0.1-0.5-0.1h-4.7V26.2z"/>
    <path class="st1" d="M130.3,11.4c1,0,2.1,0.2,3.2,0.5c1.1,0.3,2.1,0.8,2.9,1.5c0.9,0.7,1.6,1.5,2.2,2.5c0.6,1,0.8,2.2,0.8,3.6   s-0.3,2.6-0.8,3.6c-0.6,1-1.3,1.8-2.2,2.5s-1.9,1.1-2.9,1.4c-1.1,0.3-2.1,0.4-3.2,0.4c-1,0-2.1-0.1-3.2-0.4   c-1.1-0.3-2.1-0.8-2.9-1.4c-0.9-0.7-1.6-1.5-2.2-2.5c-0.6-1-0.8-2.2-0.8-3.6s0.3-2.6,0.8-3.6c0.6-1,1.3-1.8,2.2-2.5   c0.9-0.7,1.9-1.1,2.9-1.5C128.2,11.6,129.3,11.4,130.3,11.4z M130.3,14.2c-0.7,0-1.4,0.1-2.1,0.4c-0.7,0.2-1.4,0.6-1.9,1   s-1,1-1.4,1.7c-0.4,0.7-0.5,1.4-0.5,2.2s0.2,1.6,0.5,2.2c0.4,0.7,0.8,1.2,1.4,1.7c0.6,0.4,1.2,0.8,1.9,1c0.7,0.2,1.4,0.4,2.1,0.4   c0.7,0,1.4-0.1,2.1-0.4c0.7-0.2,1.4-0.6,1.9-1c0.6-0.4,1-1,1.4-1.7c0.4-0.7,0.5-1.4,0.5-2.2s-0.2-1.6-0.5-2.2   c-0.4-0.7-0.8-1.2-1.4-1.7c-0.6-0.4-1.2-0.8-1.9-1C131.7,14.3,131,14.2,130.3,14.2z"/>
    <path class="st1" d="M193.9,25.1c-0.1,0-0.1,0-0.2,0c0,0-0.1,0-0.2,0c-0.1,0-0.4,0.1-0.8,0.4s-1,0.5-1.6,0.8   c-0.7,0.3-1.4,0.6-2.2,0.8c-0.8,0.2-1.7,0.3-2.6,0.3c-1.2,0-2.3-0.2-3.4-0.5c-1.1-0.3-2.1-0.8-2.9-1.5c-0.8-0.7-1.5-1.5-2-2.5   c-0.5-1-0.7-2.2-0.7-3.5c0-1.3,0.2-2.5,0.7-3.5s1.2-1.8,2-2.5c0.8-0.7,1.8-1.2,2.9-1.5c1.1-0.3,2.2-0.5,3.4-0.5   c1,0,1.8,0.1,2.6,0.2c0.8,0.2,1.5,0.3,2,0.5c0.6,0.2,1,0.3,1.4,0.5c0.3,0.2,0.5,0.2,0.6,0.2c0.1,0,0.2,0,0.2-0.1   c0.1-0.1,0.1-0.2,0.2-0.2l0.4,0.4l-2.2,3.6l-0.3-0.2c0-0.1,0-0.1,0-0.2c0-0.1,0-0.1,0-0.2c0-0.2-0.2-0.4-0.6-0.7   c-0.3-0.2-0.8-0.4-1.3-0.6c-0.5-0.2-1-0.3-1.6-0.4c-0.6-0.1-1.1-0.2-1.5-0.2c-0.8,0-1.5,0.1-2.3,0.4c-0.7,0.2-1.4,0.6-1.9,1   c-0.5,0.5-1,1-1.3,1.7c-0.3,0.7-0.5,1.4-0.5,2.3c0,0.9,0.2,1.6,0.5,2.3c0.3,0.7,0.7,1.2,1.3,1.7c0.5,0.5,1.2,0.8,1.9,1   c0.7,0.2,1.5,0.4,2.3,0.4c0.6,0,1.2-0.1,1.9-0.2c0.7-0.1,1.3-0.3,1.8-0.6s1-0.5,1.4-0.8c0.4-0.3,0.6-0.6,0.6-0.8   c0-0.1,0-0.3-0.1-0.4l0.4-0.2l1.9,3.2L193.9,25.1z"/>
    <path class="st1" d="M207.2,11.4c1,0,2.1,0.2,3.2,0.5c1.1,0.3,2.1,0.8,2.9,1.5c0.9,0.7,1.6,1.5,2.2,2.5c0.6,1,0.8,2.2,0.8,3.6   S216,22,215.5,23c-0.6,1-1.3,1.8-2.2,2.5s-1.9,1.1-2.9,1.4c-1.1,0.3-2.1,0.4-3.2,0.4c-1,0-2.1-0.1-3.2-0.4   c-1.1-0.3-2.1-0.8-2.9-1.4s-1.6-1.5-2.2-2.5c-0.6-1-0.8-2.2-0.8-3.6s0.3-2.6,0.8-3.6c0.6-1,1.3-1.8,2.2-2.5   c0.9-0.7,1.9-1.1,2.9-1.5C205.1,11.6,206.2,11.4,207.2,11.4z M207.2,14.2c-0.7,0-1.4,0.1-2.1,0.4c-0.7,0.2-1.4,0.6-1.9,1   s-1,1-1.4,1.7c-0.4,0.7-0.5,1.4-0.5,2.2s0.2,1.6,0.5,2.2c0.4,0.7,0.8,1.2,1.4,1.7c0.6,0.4,1.2,0.8,1.9,1c0.7,0.2,1.4,0.4,2.1,0.4   c0.7,0,1.4-0.1,2.1-0.4c0.7-0.2,1.4-0.6,1.9-1c0.6-0.4,1-1,1.4-1.7c0.4-0.7,0.5-1.4,0.5-2.2s-0.2-1.6-0.5-2.2   c-0.4-0.7-0.8-1.2-1.4-1.7c-0.6-0.4-1.2-0.8-1.9-1C208.6,14.3,207.9,14.2,207.2,14.2z"/>
    <path class="st1" d="M220.7,26.7c0.2,0,0.3,0,0.4-0.1c0.1-0.1,0.2-0.2,0.2-0.4V12.6c0-0.2-0.1-0.3-0.2-0.4   c-0.1-0.1-0.2-0.1-0.4-0.1v-0.5h5.3v0.5c-0.1,0-0.2,0-0.3,0.1c-0.1,0.1-0.2,0.1-0.2,0.3c0,0.1,0,0.2,0.1,0.4   c0.1,0.2,0.2,0.3,0.3,0.5l4,7.7l4.1-7.6c0.1-0.3,0.2-0.5,0.3-0.6c0.1-0.1,0.1-0.3,0.1-0.4c0-0.2-0.1-0.3-0.4-0.3v-0.5h5.2v0.5   c-0.2,0-0.3,0-0.4,0.1c-0.1,0.1-0.2,0.2-0.2,0.4v13.6c0,0.2,0.1,0.3,0.2,0.4c0.1,0.1,0.2,0.1,0.4,0.1v0.5h-4.4v-0.5   c0.5,0,0.8-0.2,0.8-0.5v-9.9h-0.1l-5.7,10.9h-0.1l-5.6-11h-0.1v9.9c0,0.4,0.3,0.5,0.8,0.5v0.5h-4.2V26.7z"/>
    <path class="st1" d="M243.9,27.2v-0.5c0.7,0,1-0.2,1-0.5V12.7c0-0.4-0.3-0.5-1-0.5v-0.5h9.9c1.8,0,3.2,0.4,4.3,1.1   c1,0.7,1.6,1.9,1.6,3.6c0,1.7-0.5,2.9-1.6,3.6c-1,0.7-2.5,1.1-4.3,1.1h-5.7v5.3c0,0.4,0.3,0.5,0.9,0.5v0.5H243.9z M254.2,18.1   c0.6,0,1.2-0.1,1.6-0.4c0.4-0.3,0.7-0.8,0.7-1.5s-0.2-1.3-0.7-1.5c-0.4-0.3-1-0.4-1.6-0.4h-6v3.8H254.2z"/>
    <path class="st1" d="M261.2,26.7c0.2,0,0.4-0.2,0.6-0.4s0.3-0.5,0.4-0.7l5.2-11.6c0.1-0.3,0.2-0.5,0.4-0.7s0.2-0.4,0.2-0.6   c0-0.2-0.1-0.3-0.2-0.4c-0.1-0.1-0.3-0.1-0.4-0.2v-0.5h4.8v0.5c-0.1,0-0.3,0.1-0.4,0.2s-0.2,0.2-0.2,0.4c0,0.2,0,0.3,0.1,0.5   c0.1,0.2,0.2,0.4,0.3,0.6l5.9,12.1c0.1,0.2,0.2,0.4,0.4,0.5c0.2,0.1,0.3,0.2,0.6,0.3v0.5h-5v-0.5c0.1,0,0.2,0,0.3-0.1   c0.1-0.1,0.2-0.1,0.2-0.3c0-0.2-0.1-0.5-0.2-0.8l-1.1-2.2h-6.9l-1,2.1c-0.2,0.4-0.3,0.7-0.3,0.9c0,0.2,0.2,0.3,0.5,0.3v0.5h-4V26.7   z M271.8,21.2l-2.4-5.5l-2.7,5.5H271.8z"/>
    <path class="st1" d="M282,26.7c0.4,0,0.5-0.2,0.5-0.5V12.7c0-0.4-0.2-0.5-0.5-0.5v-0.5h4.8v0.5c-0.2,0-0.2,0.1-0.2,0.3   c0,0.2,0.2,0.4,0.6,0.8l8.1,8.9v-9.5c0-0.4-0.2-0.5-0.7-0.5v-0.5h4.3v0.5c-0.4,0-0.5,0.2-0.5,0.5v13.5c0,0.4,0.2,0.5,0.5,0.5v0.5   h-4.6v-0.5c0.2,0,0.4-0.1,0.4-0.3c0-0.1-0.2-0.4-0.5-0.7l-8.6-9.5v9.9c0,0.4,0.2,0.5,0.7,0.5v0.5H282V26.7z"/>
    <path class="st1" d="M307.6,11.6v0.5c-0.2,0-0.3,0-0.5,0.1c-0.2,0-0.2,0.2-0.2,0.4c0,0.1,0.1,0.4,0.4,0.8s0.6,1,1,1.5   c0.4,0.6,0.7,1.1,1.1,1.7c0.4,0.6,0.7,1.1,1,1.5l3.3-4.8c0.2-0.2,0.3-0.4,0.4-0.6c0.1-0.1,0.1-0.3,0.1-0.4c0-0.1-0.1-0.2-0.3-0.3   c-0.2,0-0.3-0.1-0.5-0.1v-0.5h4.9v0.5c-0.2,0-0.3,0-0.4,0s-0.3,0.1-0.4,0.2c-0.1,0.1-0.3,0.3-0.5,0.5c-0.2,0.2-0.4,0.5-0.6,0.8   l-4.8,7.2v5.3c0,0.4,0.2,0.5,0.7,0.5v0.5h-4.5v-0.5c0.2,0,0.3,0,0.4-0.1c0.1-0.1,0.2-0.2,0.2-0.4v-5.3l-5.5-8   c-0.1-0.2-0.3-0.4-0.6-0.5c-0.3-0.1-0.5-0.2-0.7-0.2v-0.5H307.6z"/>
</g>
  <g class="st0">
	<path class="st1" d="M151.9,21.4c0,0.1-0.1,0.1-0.1,0.2s-0.1,0.1-0.1,0.2c0,0.1,0.1,0.1,0.2,0.1V22h-1.2v-0.1c0,0,0.1,0,0.1,0   c0,0,0.1,0,0.1-0.1c0,0,0.1-0.1,0.1-0.2s0.1-0.2,0.1-0.3l1.8-4.3c0.1-0.1,0.1-0.2,0.1-0.3c0-0.1,0-0.1,0-0.1c0-0.1-0.1-0.1-0.2-0.1   v-0.1h1.5v0.1c-0.1,0-0.2,0-0.2,0.1c0,0,0,0.1,0.1,0.2c0,0.1,0.1,0.2,0.1,0.3l1.9,4.2c0.1,0.1,0.1,0.2,0.1,0.3   c0,0.1,0.1,0.1,0.1,0.2c0,0,0.1,0.1,0.1,0.1s0.1,0,0.1,0V22h-1.4v-0.1c0.1,0,0.1,0,0.2,0c0,0,0-0.1,0-0.1c0,0,0-0.1,0-0.1   c0,0-0.1-0.1-0.1-0.2l-0.4-0.9h-2.9L151.9,21.4z M154.7,19.8l-1.1-2.5l-1.1,2.5H154.7z"/>
    <path class="st1" d="M162.2,20.6v-3.8c0-0.1,0-0.1-0.1-0.2s-0.1-0.1-0.2-0.1v-0.1h1.2v0.1c-0.1,0-0.2,0-0.2,0.1   c0,0-0.1,0.1-0.1,0.2v4.8c0,0.1,0,0.1,0.1,0.2c0,0,0.1,0.1,0.2,0.1V22h-1.3v-0.1c0.1,0,0.2,0,0.2-0.1c0,0,0-0.1,0-0.1   c0,0,0-0.1-0.1-0.1l-3.6-4.3v4.4c0,0.1,0,0.1,0.1,0.2c0,0,0.1,0.1,0.2,0.1V22h-1.2v-0.1c0.1,0,0.2,0,0.2-0.1c0,0,0.1-0.1,0.1-0.2   v-4.8c0-0.1,0-0.1-0.1-0.2c0,0-0.1-0.1-0.2-0.1v-0.1h1.7v0.1c-0.1,0-0.1,0-0.2,0c0,0,0,0,0,0.1c0,0,0,0,0,0.1c0,0,0,0,0.1,0.1   L162.2,20.6L162.2,20.6z"/>
    <path class="st1" d="M164.5,16.8c0-0.1,0-0.1-0.1-0.2c0,0-0.1-0.1-0.2-0.1v-0.1h3.1c0.4,0,0.8,0.1,1.1,0.2c0.3,0.1,0.6,0.3,0.9,0.6   c0.2,0.2,0.4,0.5,0.5,0.9c0.1,0.3,0.2,0.7,0.2,1.1c0,0.4-0.1,0.8-0.2,1.1c-0.1,0.3-0.3,0.6-0.5,0.9c-0.2,0.2-0.5,0.4-0.8,0.6   c-0.3,0.1-0.7,0.2-1.1,0.2h-3.3v-0.1c0.1,0,0.2,0,0.2-0.1c0,0,0.1-0.1,0.1-0.2V16.8z M167.5,21.3c0.6,0,1-0.2,1.3-0.5   c0.3-0.4,0.4-0.9,0.4-1.6s-0.2-1.2-0.5-1.6c-0.3-0.4-0.8-0.5-1.5-0.5h-2v4.2H167.5z"/>
</g>
</svg>